<svg viewBox="0 0 300 300" xmlns="http://www.w3.org/2000/svg" style="width: 100%; height: 100%; background-color: rgb(255, 255, 255);"><svg fill="#000000" xmlns="http://www.w3.org/2000/svg" width="300" height="300" viewBox="0 0 300 300"><path d="M253.83.69H46.09A11.28,11.28,0,0,0,34.77,12V219.83a11.33,11.33,0,0,0,11.32,11.31H253.91a11.33,11.33,0,0,0,11.32-11.31V12A11.41,11.41,0,0,0,253.83.69Zm2.64,215.59a6.1,6.1,0,0,1-6.11,6.11H49.55a6.1,6.1,0,0,1-6.11-6.11V15.47a6.1,6.1,0,0,1,6.11-6.11H250.36a6.09,6.09,0,0,1,6.11,6.11Z"/><path d="M64.42,246.09A23.53,23.53,0,1,0,88,269.62a23.47,23.47,0,0,0-23.53-23.53Z" id="IconCircleOutline" fill-opacity="0"/><path id="PhoneIcon" d="M74.57,254.59v29.73a3.39,3.39,0,0,1-3.38,3.38H56.57a3.39,3.39,0,0,1-3.38-3.38V254.59a3.39,3.39,0,0,1,3.38-3.38H71.19A3.46,3.46,0,0,1,74.57,254.59Zm-15.11.17A1.57,1.57,0,0,0,61,256.33h5.62a1.57,1.57,0,0,0,1.56-1.57,1.62,1.62,0,0,0-1.56-1.57H61.11A1.59,1.59,0,0,0,59.46,254.76ZM72,258.64l-16.43-.17v22H72Zm-10.4,25.43a2.23,2.23,0,1,0,2.23-2.23A2.22,2.22,0,0,0,61.61,284.07Z"/><path id="PhoneIconBlack" d="M74.57,254.59v29.73a3.39,3.39,0,0,1-3.38,3.38H56.57a3.39,3.39,0,0,1-3.38-3.38V254.59a3.39,3.39,0,0,1,3.38-3.38H71.19A3.46,3.46,0,0,1,74.57,254.59Zm-15.11.17A1.57,1.57,0,0,0,61,256.33h5.62a1.57,1.57,0,0,0,1.56-1.57,1.62,1.62,0,0,0-1.56-1.57H61.11A1.59,1.59,0,0,0,59.46,254.76ZM72,258.64l-16.43-.17v22H72Zm-10.4,25.43a2.23,2.23,0,1,0,2.23-2.23A2.22,2.22,0,0,0,61.61,284.07Z" fill-opacity="0"/><path d="M235.5,240H64.42a29.68,29.68,0,0,0,0,59.36h171A29.68,29.68,0,0,0,235.5,240ZM64.42,293.15A23.53,23.53,0,1,1,88,269.62,23.47,23.47,0,0,1,64.42,293.15Z"/><g transform="translate(46.5, 12.5)scale(0.687)" fill="none"><svg width="300" height="300"><style>.background-color{ fill: transparent; }.dot-color{ fill: #000000; }.corners-square-color-0-0{ fill: #000000; }.corners-dot-color-0-0{ fill: #000000; }.corners-square-color-1-0{ fill: #000000; }.corners-dot-color-1-0{ fill: #000000; }.corners-square-color-0-1{ fill: #000000; }.corners-dot-color-0-1{ fill: #000000; }</style><defs/><g class="dot-color"><circle cx="10" cy="90" r="5" transform="rotate(0,10,90)"/><circle cx="10" cy="110" r="5" transform="rotate(0,10,110)"/><circle cx="10" cy="120" r="5" transform="rotate(0,10,120)"/><circle cx="10" cy="130" r="5" transform="rotate(0,10,130)"/><circle cx="10" cy="150" r="5" transform="rotate(0,10,150)"/><circle cx="10" cy="160" r="5" transform="rotate(0,10,160)"/><circle cx="10" cy="170" r="5" transform="rotate(0,10,170)"/><circle cx="10" cy="180" r="5" transform="rotate(0,10,180)"/><circle cx="20" cy="110" r="5" transform="rotate(0,20,110)"/><circle cx="20" cy="120" r="5" transform="rotate(0,20,120)"/><circle cx="20" cy="130" r="5" transform="rotate(0,20,130)"/><circle cx="20" cy="170" r="5" transform="rotate(0,20,170)"/><circle cx="20" cy="210" r="5" transform="rotate(0,20,210)"/><circle cx="30" cy="120" r="5" transform="rotate(0,30,120)"/><circle cx="30" cy="130" r="5" transform="rotate(0,30,130)"/><circle cx="30" cy="150" r="5" transform="rotate(0,30,150)"/><circle cx="30" cy="160" r="5" transform="rotate(0,30,160)"/><circle cx="30" cy="170" r="5" transform="rotate(0,30,170)"/><circle cx="40" cy="150" r="5" transform="rotate(0,40,150)"/><circle cx="40" cy="170" r="5" transform="rotate(0,40,170)"/><circle cx="40" cy="180" r="5" transform="rotate(0,40,180)"/><circle cx="50" cy="90" r="5" transform="rotate(0,50,90)"/><circle cx="50" cy="110" r="5" transform="rotate(0,50,110)"/><circle cx="50" cy="130" r="5" transform="rotate(0,50,130)"/><circle cx="50" cy="160" r="5" transform="rotate(0,50,160)"/><circle cx="50" cy="170" r="5" transform="rotate(0,50,170)"/><circle cx="50" cy="180" r="5" transform="rotate(0,50,180)"/><circle cx="50" cy="200" r="5" transform="rotate(0,50,200)"/><circle cx="60" cy="90" r="5" transform="rotate(0,60,90)"/><circle cx="60" cy="100" r="5" transform="rotate(0,60,100)"/><circle cx="60" cy="120" r="5" transform="rotate(0,60,120)"/><circle cx="60" cy="140" r="5" transform="rotate(0,60,140)"/><circle cx="60" cy="150" r="5" transform="rotate(0,60,150)"/><circle cx="60" cy="160" r="5" transform="rotate(0,60,160)"/><circle cx="60" cy="180" r="5" transform="rotate(0,60,180)"/><circle cx="60" cy="210" r="5" transform="rotate(0,60,210)"/><circle cx="70" cy="90" r="5" transform="rotate(0,70,90)"/><circle cx="70" cy="110" r="5" transform="rotate(0,70,110)"/><circle cx="70" cy="130" r="5" transform="rotate(0,70,130)"/><circle cx="70" cy="150" r="5" transform="rotate(0,70,150)"/><circle cx="70" cy="170" r="5" transform="rotate(0,70,170)"/><circle cx="70" cy="190" r="5" transform="rotate(0,70,190)"/><circle cx="70" cy="210" r="5" transform="rotate(0,70,210)"/><circle cx="80" cy="100" r="5" transform="rotate(0,80,100)"/><circle cx="80" cy="130" r="5" transform="rotate(0,80,130)"/><circle cx="80" cy="170" r="5" transform="rotate(0,80,170)"/><circle cx="80" cy="180" r="5" transform="rotate(0,80,180)"/><circle cx="80" cy="190" r="5" transform="rotate(0,80,190)"/><circle cx="80" cy="210" r="5" transform="rotate(0,80,210)"/><circle cx="90" cy="20" r="5" transform="rotate(0,90,20)"/><circle cx="90" cy="30" r="5" transform="rotate(0,90,30)"/><circle cx="90" cy="40" r="5" transform="rotate(0,90,40)"/><circle cx="90" cy="50" r="5" transform="rotate(0,90,50)"/><circle cx="90" cy="60" r="5" transform="rotate(0,90,60)"/><circle cx="90" cy="70" r="5" transform="rotate(0,90,70)"/><circle cx="90" cy="80" r="5" transform="rotate(0,90,80)"/><circle cx="90" cy="110" r="5" transform="rotate(0,90,110)"/><circle cx="90" cy="150" r="5" transform="rotate(0,90,150)"/><circle cx="90" cy="160" r="5" transform="rotate(0,90,160)"/><circle cx="90" cy="240" r="5" transform="rotate(0,90,240)"/><circle cx="90" cy="250" r="5" transform="rotate(0,90,250)"/><circle cx="90" cy="290" r="5" transform="rotate(0,90,290)"/><circle cx="100" cy="40" r="5" transform="rotate(0,100,40)"/><circle cx="100" cy="50" r="5" transform="rotate(0,100,50)"/><circle cx="100" cy="90" r="5" transform="rotate(0,100,90)"/><circle cx="100" cy="100" r="5" transform="rotate(0,100,100)"/><circle cx="100" cy="110" r="5" transform="rotate(0,100,110)"/><circle cx="100" cy="120" r="5" transform="rotate(0,100,120)"/><circle cx="100" cy="150" r="5" transform="rotate(0,100,150)"/><circle cx="100" cy="190" r="5" transform="rotate(0,100,190)"/><circle cx="100" cy="210" r="5" transform="rotate(0,100,210)"/><circle cx="100" cy="230" r="5" transform="rotate(0,100,230)"/><circle cx="100" cy="240" r="5" transform="rotate(0,100,240)"/><circle cx="100" cy="250" r="5" transform="rotate(0,100,250)"/><circle cx="100" cy="260" r="5" transform="rotate(0,100,260)"/><circle cx="100" cy="270" r="5" transform="rotate(0,100,270)"/><circle cx="100" cy="290" r="5" transform="rotate(0,100,290)"/><circle cx="110" cy="10" r="5" transform="rotate(0,110,10)"/><circle cx="110" cy="20" r="5" transform="rotate(0,110,20)"/><circle cx="110" cy="30" r="5" transform="rotate(0,110,30)"/><circle cx="110" cy="40" r="5" transform="rotate(0,110,40)"/><circle cx="110" cy="50" r="5" transform="rotate(0,110,50)"/><circle cx="110" cy="60" r="5" transform="rotate(0,110,60)"/><circle cx="110" cy="70" r="5" transform="rotate(0,110,70)"/><circle cx="110" cy="110" r="5" transform="rotate(0,110,110)"/><circle cx="110" cy="120" r="5" transform="rotate(0,110,120)"/><circle cx="110" cy="140" r="5" transform="rotate(0,110,140)"/><circle cx="110" cy="160" r="5" transform="rotate(0,110,160)"/><circle cx="110" cy="190" r="5" transform="rotate(0,110,190)"/><circle cx="110" cy="200" r="5" transform="rotate(0,110,200)"/><circle cx="110" cy="220" r="5" transform="rotate(0,110,220)"/><circle cx="110" cy="230" r="5" transform="rotate(0,110,230)"/><circle cx="110" cy="240" r="5" transform="rotate(0,110,240)"/><circle cx="110" cy="260" r="5" transform="rotate(0,110,260)"/><circle cx="110" cy="270" r="5" transform="rotate(0,110,270)"/><circle cx="120" cy="40" r="5" transform="rotate(0,120,40)"/><circle cx="120" cy="90" r="5" transform="rotate(0,120,90)"/><circle cx="120" cy="100" r="5" transform="rotate(0,120,100)"/><circle cx="120" cy="170" r="5" transform="rotate(0,120,170)"/><circle cx="120" cy="200" r="5" transform="rotate(0,120,200)"/><circle cx="120" cy="210" r="5" transform="rotate(0,120,210)"/><circle cx="120" cy="220" r="5" transform="rotate(0,120,220)"/><circle cx="120" cy="230" r="5" transform="rotate(0,120,230)"/><circle cx="120" cy="260" r="5" transform="rotate(0,120,260)"/><circle cx="120" cy="280" r="5" transform="rotate(0,120,280)"/><circle cx="130" cy="10" r="5" transform="rotate(0,130,10)"/><circle cx="130" cy="30" r="5" transform="rotate(0,130,30)"/><circle cx="130" cy="60" r="5" transform="rotate(0,130,60)"/><circle cx="130" cy="70" r="5" transform="rotate(0,130,70)"/><circle cx="130" cy="80" r="5" transform="rotate(0,130,80)"/><circle cx="130" cy="100" r="5" transform="rotate(0,130,100)"/><circle cx="130" cy="120" r="5" transform="rotate(0,130,120)"/><circle cx="130" cy="130" r="5" transform="rotate(0,130,130)"/><circle cx="130" cy="150" r="5" transform="rotate(0,130,150)"/><circle cx="130" cy="160" r="5" transform="rotate(0,130,160)"/><circle cx="130" cy="180" r="5" transform="rotate(0,130,180)"/><circle cx="130" cy="200" r="5" transform="rotate(0,130,200)"/><circle cx="130" cy="220" r="5" transform="rotate(0,130,220)"/><circle cx="130" cy="240" r="5" transform="rotate(0,130,240)"/><circle cx="130" cy="260" r="5" transform="rotate(0,130,260)"/><circle cx="130" cy="270" r="5" transform="rotate(0,130,270)"/><circle cx="130" cy="280" r="5" transform="rotate(0,130,280)"/><circle cx="130" cy="290" r="5" transform="rotate(0,130,290)"/><circle cx="140" cy="10" r="5" transform="rotate(0,140,10)"/><circle cx="140" cy="20" r="5" transform="rotate(0,140,20)"/><circle cx="140" cy="40" r="5" transform="rotate(0,140,40)"/><circle cx="140" cy="50" r="5" transform="rotate(0,140,50)"/><circle cx="140" cy="60" r="5" transform="rotate(0,140,60)"/><circle cx="140" cy="90" r="5" transform="rotate(0,140,90)"/><circle cx="140" cy="100" r="5" transform="rotate(0,140,100)"/><circle cx="140" cy="120" r="5" transform="rotate(0,140,120)"/><circle cx="140" cy="140" r="5" transform="rotate(0,140,140)"/><circle cx="140" cy="160" r="5" transform="rotate(0,140,160)"/><circle cx="140" cy="170" r="5" transform="rotate(0,140,170)"/><circle cx="140" cy="200" r="5" transform="rotate(0,140,200)"/><circle cx="140" cy="210" r="5" transform="rotate(0,140,210)"/><circle cx="140" cy="220" r="5" transform="rotate(0,140,220)"/><circle cx="140" cy="230" r="5" transform="rotate(0,140,230)"/><circle cx="140" cy="250" r="5" transform="rotate(0,140,250)"/><circle cx="140" cy="260" r="5" transform="rotate(0,140,260)"/><circle cx="140" cy="280" r="5" transform="rotate(0,140,280)"/><circle cx="140" cy="290" r="5" transform="rotate(0,140,290)"/><circle cx="150" cy="10" r="5" transform="rotate(0,150,10)"/><circle cx="150" cy="20" r="5" transform="rotate(0,150,20)"/><circle cx="150" cy="40" r="5" transform="rotate(0,150,40)"/><circle cx="150" cy="70" r="5" transform="rotate(0,150,70)"/><circle cx="150" cy="80" r="5" transform="rotate(0,150,80)"/><circle cx="150" cy="140" r="5" transform="rotate(0,150,140)"/><circle cx="150" cy="160" r="5" transform="rotate(0,150,160)"/><circle cx="150" cy="190" r="5" transform="rotate(0,150,190)"/><circle cx="150" cy="210" r="5" transform="rotate(0,150,210)"/><circle cx="150" cy="220" r="5" transform="rotate(0,150,220)"/><circle cx="150" cy="240" r="5" transform="rotate(0,150,240)"/><circle cx="150" cy="280" r="5" transform="rotate(0,150,280)"/><circle cx="160" cy="10" r="5" transform="rotate(0,160,10)"/><circle cx="160" cy="30" r="5" transform="rotate(0,160,30)"/><circle cx="160" cy="40" r="5" transform="rotate(0,160,40)"/><circle cx="160" cy="60" r="5" transform="rotate(0,160,60)"/><circle cx="160" cy="100" r="5" transform="rotate(0,160,100)"/><circle cx="160" cy="110" r="5" transform="rotate(0,160,110)"/><circle cx="160" cy="130" r="5" transform="rotate(0,160,130)"/><circle cx="160" cy="140" r="5" transform="rotate(0,160,140)"/><circle cx="160" cy="160" r="5" transform="rotate(0,160,160)"/><circle cx="160" cy="210" r="5" transform="rotate(0,160,210)"/><circle cx="160" cy="220" r="5" transform="rotate(0,160,220)"/><circle cx="160" cy="250" r="5" transform="rotate(0,160,250)"/><circle cx="160" cy="260" r="5" transform="rotate(0,160,260)"/><circle cx="170" cy="10" r="5" transform="rotate(0,170,10)"/><circle cx="170" cy="40" r="5" transform="rotate(0,170,40)"/><circle cx="170" cy="70" r="5" transform="rotate(0,170,70)"/><circle cx="170" cy="80" r="5" transform="rotate(0,170,80)"/><circle cx="170" cy="90" r="5" transform="rotate(0,170,90)"/><circle cx="170" cy="110" r="5" transform="rotate(0,170,110)"/><circle cx="170" cy="190" r="5" transform="rotate(0,170,190)"/><circle cx="170" cy="200" r="5" transform="rotate(0,170,200)"/><circle cx="170" cy="250" r="5" transform="rotate(0,170,250)"/><circle cx="170" cy="260" r="5" transform="rotate(0,170,260)"/><circle cx="170" cy="270" r="5" transform="rotate(0,170,270)"/><circle cx="170" cy="290" r="5" transform="rotate(0,170,290)"/><circle cx="180" cy="10" r="5" transform="rotate(0,180,10)"/><circle cx="180" cy="40" r="5" transform="rotate(0,180,40)"/><circle cx="180" cy="50" r="5" transform="rotate(0,180,50)"/><circle cx="180" cy="60" r="5" transform="rotate(0,180,60)"/><circle cx="180" cy="80" r="5" transform="rotate(0,180,80)"/><circle cx="180" cy="90" r="5" transform="rotate(0,180,90)"/><circle cx="180" cy="130" r="5" transform="rotate(0,180,130)"/><circle cx="180" cy="140" r="5" transform="rotate(0,180,140)"/><circle cx="180" cy="160" r="5" transform="rotate(0,180,160)"/><circle cx="180" cy="170" r="5" transform="rotate(0,180,170)"/><circle cx="180" cy="230" r="5" transform="rotate(0,180,230)"/><circle cx="180" cy="240" r="5" transform="rotate(0,180,240)"/><circle cx="180" cy="250" r="5" transform="rotate(0,180,250)"/><circle cx="180" cy="280" r="5" transform="rotate(0,180,280)"/><circle cx="180" cy="290" r="5" transform="rotate(0,180,290)"/><circle cx="190" cy="10" r="5" transform="rotate(0,190,10)"/><circle cx="190" cy="40" r="5" transform="rotate(0,190,40)"/><circle cx="190" cy="60" r="5" transform="rotate(0,190,60)"/><circle cx="190" cy="70" r="5" transform="rotate(0,190,70)"/><circle cx="190" cy="80" r="5" transform="rotate(0,190,80)"/><circle cx="190" cy="100" r="5" transform="rotate(0,190,100)"/><circle cx="190" cy="120" r="5" transform="rotate(0,190,120)"/><circle cx="190" cy="130" r="5" transform="rotate(0,190,130)"/><circle cx="190" cy="140" r="5" transform="rotate(0,190,140)"/><circle cx="190" cy="180" r="5" transform="rotate(0,190,180)"/><circle cx="190" cy="190" r="5" transform="rotate(0,190,190)"/><circle cx="190" cy="230" r="5" transform="rotate(0,190,230)"/><circle cx="190" cy="240" r="5" transform="rotate(0,190,240)"/><circle cx="190" cy="250" r="5" transform="rotate(0,190,250)"/><circle cx="190" cy="260" r="5" transform="rotate(0,190,260)"/><circle cx="190" cy="270" r="5" transform="rotate(0,190,270)"/><circle cx="200" cy="10" r="5" transform="rotate(0,200,10)"/><circle cx="200" cy="30" r="5" transform="rotate(0,200,30)"/><circle cx="200" cy="50" r="5" transform="rotate(0,200,50)"/><circle cx="200" cy="80" r="5" transform="rotate(0,200,80)"/><circle cx="200" cy="100" r="5" transform="rotate(0,200,100)"/><circle cx="200" cy="120" r="5" transform="rotate(0,200,120)"/><circle cx="200" cy="130" r="5" transform="rotate(0,200,130)"/><circle cx="200" cy="150" r="5" transform="rotate(0,200,150)"/><circle cx="200" cy="170" r="5" transform="rotate(0,200,170)"/><circle cx="200" cy="190" r="5" transform="rotate(0,200,190)"/><circle cx="200" cy="230" r="5" transform="rotate(0,200,230)"/><circle cx="200" cy="240" r="5" transform="rotate(0,200,240)"/><circle cx="200" cy="260" r="5" transform="rotate(0,200,260)"/><circle cx="210" cy="10" r="5" transform="rotate(0,210,10)"/><circle cx="210" cy="40" r="5" transform="rotate(0,210,40)"/><circle cx="210" cy="50" r="5" transform="rotate(0,210,50)"/><circle cx="210" cy="60" r="5" transform="rotate(0,210,60)"/><circle cx="210" cy="70" r="5" transform="rotate(0,210,70)"/><circle cx="210" cy="80" r="5" transform="rotate(0,210,80)"/><circle cx="210" cy="90" r="5" transform="rotate(0,210,90)"/><circle cx="210" cy="100" r="5" transform="rotate(0,210,100)"/><circle cx="210" cy="110" r="5" transform="rotate(0,210,110)"/><circle cx="210" cy="120" r="5" transform="rotate(0,210,120)"/><circle cx="210" cy="130" r="5" transform="rotate(0,210,130)"/><circle cx="210" cy="150" r="5" transform="rotate(0,210,150)"/><circle cx="210" cy="180" r="5" transform="rotate(0,210,180)"/><circle cx="210" cy="190" r="5" transform="rotate(0,210,190)"/><circle cx="210" cy="210" r="5" transform="rotate(0,210,210)"/><circle cx="210" cy="220" r="5" transform="rotate(0,210,220)"/><circle cx="210" cy="230" r="5" transform="rotate(0,210,230)"/><circle cx="210" cy="240" r="5" transform="rotate(0,210,240)"/><circle cx="210" cy="250" r="5" transform="rotate(0,210,250)"/><circle cx="210" cy="270" r="5" transform="rotate(0,210,270)"/><circle cx="210" cy="280" r="5" transform="rotate(0,210,280)"/><circle cx="210" cy="290" r="5" transform="rotate(0,210,290)"/><circle cx="220" cy="90" r="5" transform="rotate(0,220,90)"/><circle cx="220" cy="100" r="5" transform="rotate(0,220,100)"/><circle cx="220" cy="150" r="5" transform="rotate(0,220,150)"/><circle cx="220" cy="170" r="5" transform="rotate(0,220,170)"/><circle cx="220" cy="180" r="5" transform="rotate(0,220,180)"/><circle cx="220" cy="190" r="5" transform="rotate(0,220,190)"/><circle cx="220" cy="210" r="5" transform="rotate(0,220,210)"/><circle cx="220" cy="250" r="5" transform="rotate(0,220,250)"/><circle cx="220" cy="260" r="5" transform="rotate(0,220,260)"/><circle cx="220" cy="280" r="5" transform="rotate(0,220,280)"/><circle cx="220" cy="290" r="5" transform="rotate(0,220,290)"/><circle cx="230" cy="90" r="5" transform="rotate(0,230,90)"/><circle cx="230" cy="100" r="5" transform="rotate(0,230,100)"/><circle cx="230" cy="110" r="5" transform="rotate(0,230,110)"/><circle cx="230" cy="130" r="5" transform="rotate(0,230,130)"/><circle cx="230" cy="160" r="5" transform="rotate(0,230,160)"/><circle cx="230" cy="170" r="5" transform="rotate(0,230,170)"/><circle cx="230" cy="180" r="5" transform="rotate(0,230,180)"/><circle cx="230" cy="200" r="5" transform="rotate(0,230,200)"/><circle cx="230" cy="210" r="5" transform="rotate(0,230,210)"/><circle cx="230" cy="230" r="5" transform="rotate(0,230,230)"/><circle cx="230" cy="250" r="5" transform="rotate(0,230,250)"/><circle cx="240" cy="90" r="5" transform="rotate(0,240,90)"/><circle cx="240" cy="150" r="5" transform="rotate(0,240,150)"/><circle cx="240" cy="180" r="5" transform="rotate(0,240,180)"/><circle cx="240" cy="190" r="5" transform="rotate(0,240,190)"/><circle cx="240" cy="200" r="5" transform="rotate(0,240,200)"/><circle cx="240" cy="210" r="5" transform="rotate(0,240,210)"/><circle cx="240" cy="250" r="5" transform="rotate(0,240,250)"/><circle cx="240" cy="260" r="5" transform="rotate(0,240,260)"/><circle cx="240" cy="290" r="5" transform="rotate(0,240,290)"/><circle cx="250" cy="90" r="5" transform="rotate(0,250,90)"/><circle cx="250" cy="100" r="5" transform="rotate(0,250,100)"/><circle cx="250" cy="110" r="5" transform="rotate(0,250,110)"/><circle cx="250" cy="130" r="5" transform="rotate(0,250,130)"/><circle cx="250" cy="140" r="5" transform="rotate(0,250,140)"/><circle cx="250" cy="160" r="5" transform="rotate(0,250,160)"/><circle cx="250" cy="170" r="5" transform="rotate(0,250,170)"/><circle cx="250" cy="210" r="5" transform="rotate(0,250,210)"/><circle cx="250" cy="220" r="5" transform="rotate(0,250,220)"/><circle cx="250" cy="230" r="5" transform="rotate(0,250,230)"/><circle cx="250" cy="240" r="5" transform="rotate(0,250,240)"/><circle cx="250" cy="250" r="5" transform="rotate(0,250,250)"/><circle cx="250" cy="260" r="5" transform="rotate(0,250,260)"/><circle cx="250" cy="270" r="5" transform="rotate(0,250,270)"/><circle cx="250" cy="290" r="5" transform="rotate(0,250,290)"/><circle cx="260" cy="90" r="5" transform="rotate(0,260,90)"/><circle cx="260" cy="100" r="5" transform="rotate(0,260,100)"/><circle cx="260" cy="120" r="5" transform="rotate(0,260,120)"/><circle cx="260" cy="130" r="5" transform="rotate(0,260,130)"/><circle cx="260" cy="150" r="5" transform="rotate(0,260,150)"/><circle cx="260" cy="160" r="5" transform="rotate(0,260,160)"/><circle cx="260" cy="180" r="5" transform="rotate(0,260,180)"/><circle cx="260" cy="190" r="5" transform="rotate(0,260,190)"/><circle cx="260" cy="200" r="5" transform="rotate(0,260,200)"/><circle cx="260" cy="210" r="5" transform="rotate(0,260,210)"/><circle cx="260" cy="220" r="5" transform="rotate(0,260,220)"/><circle cx="260" cy="240" r="5" transform="rotate(0,260,240)"/><circle cx="260" cy="270" r="5" transform="rotate(0,260,270)"/><circle cx="270" cy="90" r="5" transform="rotate(0,270,90)"/><circle cx="270" cy="100" r="5" transform="rotate(0,270,100)"/><circle cx="270" cy="160" r="5" transform="rotate(0,270,160)"/><circle cx="270" cy="170" r="5" transform="rotate(0,270,170)"/><circle cx="270" cy="180" r="5" transform="rotate(0,270,180)"/><circle cx="270" cy="200" r="5" transform="rotate(0,270,200)"/><circle cx="270" cy="210" r="5" transform="rotate(0,270,210)"/><circle cx="270" cy="220" r="5" transform="rotate(0,270,220)"/><circle cx="270" cy="230" r="5" transform="rotate(0,270,230)"/><circle cx="270" cy="240" r="5" transform="rotate(0,270,240)"/><circle cx="270" cy="250" r="5" transform="rotate(0,270,250)"/><circle cx="270" cy="280" r="5" transform="rotate(0,270,280)"/><circle cx="280" cy="90" r="5" transform="rotate(0,280,90)"/><circle cx="280" cy="130" r="5" transform="rotate(0,280,130)"/><circle cx="280" cy="150" r="5" transform="rotate(0,280,150)"/><circle cx="280" cy="160" r="5" transform="rotate(0,280,160)"/><circle cx="280" cy="190" r="5" transform="rotate(0,280,190)"/><circle cx="280" cy="200" r="5" transform="rotate(0,280,200)"/><circle cx="280" cy="220" r="5" transform="rotate(0,280,220)"/><circle cx="280" cy="250" r="5" transform="rotate(0,280,250)"/><circle cx="280" cy="260" r="5" transform="rotate(0,280,260)"/><circle cx="280" cy="280" r="5" transform="rotate(0,280,280)"/><circle cx="290" cy="110" r="5" transform="rotate(0,290,110)"/><circle cx="290" cy="120" r="5" transform="rotate(0,290,120)"/><circle cx="290" cy="130" r="5" transform="rotate(0,290,130)"/><circle cx="290" cy="150" r="5" transform="rotate(0,290,150)"/><circle cx="290" cy="160" r="5" transform="rotate(0,290,160)"/><circle cx="290" cy="180" r="5" transform="rotate(0,290,180)"/><circle cx="290" cy="200" r="5" transform="rotate(0,290,200)"/><circle cx="290" cy="250" r="5" transform="rotate(0,290,250)"/></g><g class="corners-square-color-0-0"><path clip-rule="evenodd" d="M 5 30v 20a 25 25, 0, 0, 0, 25 25h 20a 25 25, 0, 0, 0, 25 -25v -20a 25 25, 0, 0, 0, -25 -25h -20a 25 25, 0, 0, 0, -25 25M 30 15h 20a 15 15, 0, 0, 1, 15 15v 20a 15 15, 0, 0, 1, -15 15h -20a 15 15, 0, 0, 1, -15 -15v -20a 15 15, 0, 0, 1, 15 -15" transform="rotate(0,40,40)"/></g><g class="corners-dot-color-0-0"><rect x="25" y="25" width="30" height="30" transform="rotate(0,40,40)"/></g><g class="corners-square-color-1-0"><path clip-rule="evenodd" d="M 225 30v 20a 25 25, 0, 0, 0, 25 25h 20a 25 25, 0, 0, 0, 25 -25v -20a 25 25, 0, 0, 0, -25 -25h -20a 25 25, 0, 0, 0, -25 25M 250 15h 20a 15 15, 0, 0, 1, 15 15v 20a 15 15, 0, 0, 1, -15 15h -20a 15 15, 0, 0, 1, -15 -15v -20a 15 15, 0, 0, 1, 15 -15" transform="rotate(90,260,40)"/></g><g class="corners-dot-color-1-0"><rect x="245" y="25" width="30" height="30" transform="rotate(90,260,40)"/></g><g class="corners-square-color-0-1"><path clip-rule="evenodd" d="M 5 250v 20a 25 25, 0, 0, 0, 25 25h 20a 25 25, 0, 0, 0, 25 -25v -20a 25 25, 0, 0, 0, -25 -25h -20a 25 25, 0, 0, 0, -25 25M 30 235h 20a 15 15, 0, 0, 1, 15 15v 20a 15 15, 0, 0, 1, -15 15h -20a 15 15, 0, 0, 1, -15 -15v -20a 15 15, 0, 0, 1, 15 -15" transform="rotate(-90,40,260)"/></g><g class="corners-dot-color-0-1"><rect x="25" y="245" width="30" height="30" transform="rotate(-90,40,260)"/></g></svg></g></svg><g transform="translate(170,282)scale(0.8)"><style>
               .small622{
                  fill:#dab7e1;
                  font-size:30px;
                  font-family: Roboto, sans-serif;
                  }</style><text x="0" y="-7" text-anchor="middle" class="small622">Whatsapp</text></g></svg>